HIERARCHY
ROOT simHips
{
  OFFSET 6.13146 95.3961 -0.669452
  CHANNELS 6 Xposition Yposition Zposition Zrotation Xrotation Yrotation
  JOINT simSpine
  {
    OFFSET -0.000360269 21.3001 -0.0169217
    CHANNELS 3 Zrotation Xrotation Yrotation
    JOINT simLeftArm
    {
      OFFSET 13.5181 21.3012 -2.3511e-005
      CHANNELS 3 Zrotation Xrotation Yrotation
      JOINT simLeftForeArm
      {
        OFFSET 24.5783 0 -6.3921e-005
        CHANNELS 3 Zrotation Xrotation Yrotation
        JOINT simLeftHand
        {
          OFFSET 24.5783 0 0
          CHANNELS 3 Zrotation Xrotation Yrotation
          End Site
          {
            OFFSET 7.32568 1.52588e-005 0.0169305
          }
        }
      }
    }
    JOINT simHead
    {
      OFFSET 0 27.4458 -0.00488811
      CHANNELS 3 Zrotation Xrotation Yrotation
      End Site
      {
        OFFSET 0 0 0
      }
    }
    JOINT simRightArm
    {
      OFFSET -13.5174 21.3012 -1.52733e-005
      CHANNELS 3 Zrotation Xrotation Yrotation
      JOINT simRightForeArm
      {
        OFFSET -24.5783 -0.000552281 0.000112897
        CHANNELS 3 Zrotation Xrotation Yrotation
        JOINT simRightHand
        {
          OFFSET -24.5783 0 1.19926e-005
          CHANNELS 3 Zrotation Xrotation Yrotation
          End Site
          {
            OFFSET -7.32568 1.52588e-005 0.0169305
          }
        }
      }
    }
  }
  JOINT simRightUpLeg
  {
    OFFSET -8.44614 -9.41038 0.835682
    CHANNELS 3 Zrotation Xrotation Yrotation
    JOINT simRightLeg
    {
      OFFSET -3.23466e-005 -40.9639 0
      CHANNELS 3 Zrotation Xrotation Yrotation
      JOINT simRightFoot
      {
        OFFSET 0 -40.9639 0
        CHANNELS 3 Zrotation Xrotation Yrotation
        End Site
        {
          OFFSET 0.50614 -9.67405 14.6709
        }
      }
    }
  }
  JOINT simLeftUpLeg
  {
    OFFSET 8.44614 -9.41038 0.835681
    CHANNELS 3 Zrotation Xrotation Yrotation
    JOINT simLeftLeg
    {
      OFFSET -0.00018133 -40.964 6.2497e-005
      CHANNELS 3 Zrotation Xrotation Yrotation
      JOINT simLeftFoot
      {
        OFFSET 0 -40.9639 0
        CHANNELS 3 Zrotation Xrotation Yrotation
        End Site
        {
          OFFSET -0.50614 -9.67405 14.6709
        }
      }
    }
  }
}
MOTION
Frames:	18
Frame Time:	0.0333333
-14.9043 97.6069 2.83186 3.73985 4.75178 -31.5117 7.09262 10.1265 5.06015 -64.2357 -2.26618 7.59849 1.45748e-005 3.83078e-006 -78.5406 -36.6449 -45.5683 -47.653 6.09282 -0.931928 -0.299558 62.7946 -11.2213 29.5898 -0.000581842 1.88338e-005 107.973 168.827 -4.35737 -160.425 -30.1946 -17.6903 -25.3584 7.17931e-006 33.5341 0.0178459 25.4561 -5.87624 1.60087 27.2147 -23.1226 10.7955 -4.34856e-006 26.7113 -0.0114237 -24.8228 -4.52141 -5.02757 
-13.0401 97.7565 2.98479 2.27132 6.34359 -30.9452 6.16214 10.4769 4.94333 -64.1445 -2.61817 7.10856 1.4543e-005 3.98433e-006 -78.0746 -36.9235 -45.2982 -48.9168 6.20726 -2.1248 0.515947 62.8102 -11.5648 30.1249 -0.000787786 2.00033e-005 109.131 169.675 -4.74367 -161.163 -28.4494 -16.9055 -25.7676 -6.44879e-005 29.6183 -0.00847862 25.7441 -2.89966 0.300662 28.6845 -25.3493 11.4872 1.35328e-005 28.589 -0.0255131 -24.3223 -5.59842 -6.02944 
-11.2059 97.9555 3.00356 0.950634 7.90305 -30.9209 5.16024 10.9353 5.21442 -63.889 -3.1199 6.82365 1.45102e-005 4.1367e-006 -77.6115 -37.5479 -45.1753 -49.5503 6.72472 -2.67051 1.45754 62.9767 -11.4196 30.5479 -0.00102282 2.09433e-005 110.068 169.872 -5.11172 -162.693 -26.5071 -16.3295 -25.7192 -3.67265e-006 25.1039 -0.0442477 25.9383 0.68312 -1.13915 30.276 -27.3067 12.6075 2.4349e-005 30.2996 -0.0346811 -23.6619 -6.45827 -6.75619 
-9.35785 98.1553 2.85608 -0.00151341 9.49098 -31.4945 3.96596 11.2329 5.84513 -63.4643 -3.75974 6.75407 1.44717e-005 4.30836e-006 -77.0887 -38.3799 -45.3388 -50.6248 7.2735 -2.77769 1.91238 63.2977 -10.7727 30.9861 -0.00126924 2.18427e-005 110.97 169.498 -5.09581 -162.977 -24.5982 -16.0976 -25.593 7.13122e-006 20.0287 -0.0884322 25.7373 4.89114 -2.64004 31.9041 -29.1094 14.3934 0.000500703 31.8275 -0.0361973 -22.7983 -7.17347 -7.16846 
-7.56923 98.313 2.58333 -0.77815 10.8707 -32.203 2.71865 11.5779 6.38611 -62.8875 -4.59876 6.94361 1.44309e-005 4.48239e-006 -76.5576 -38.9687 -45.0256 -51.9681 7.91554 -2.93178 2.6218 63.7453 -9.78498 31.5297 -0.00150931 2.27758e-005 111.911 169.254 -5.7564 -162.038 -22.638 -15.2471 -25.6671 -1.56615e-005 13.761 -0.14928 26.4855 9.40163 -4.39999 33.4104 -30.778 16.1989 0.000854438 33.2603 -0.0342264 -21.8734 -7.70812 -7.33058 
-6.07297 98.3865 2.10491 -1.69344 12.1737 -33.2287 1.71046 12.0466 7.10136 -62.1682 -5.69061 7.23143 1.43853e-005 4.66896e-006 -75.9868 -39.8704 -45.4228 -53.3228 8.30956 -3.3925 3.90432 64.2838 -8.14889 32.1423 -0.00172516 2.35495e-005 112.696 168.848 -6.5389 -161.888 -20.2099 -14.3341 -25.1461 -1.78161e-005 7.86597 -0.202923 27.2674 12.1239 -5.62045 35.3855 -31.8745 18.2689 0.000775221 34.2952 -0.0304058 -21.1429 -8.00896 -7.36787 
-4.79563 98.4456 1.45737 -2.40998 13.3389 -34.1121 0.736663 12.545 7.98055 -61.4901 -7.15136 7.52282 1.4345e-005 4.8277e-006 -75.5002 -40.7917 -45.5719 -53.8703 8.12552 -4.31167 4.63597 64.8986 -6.36346 32.6478 -0.001899 2.4111e-005 113.268 168.353 -8.67014 -161.686 -18.1524 -14.0645 -23.3427 4.53282e-005 5.87576 -0.182614 27.8544 9.20091 -4.26051 37.2507 -32.7441 20.2166 0.000378047 34.8187 -0.0265973 -20.5954 -7.98469 -7.29764 
-3.70242 98.4751 0.708375 -2.88651 14.2041 -34.4873 -0.541088 13.0341 8.63167 -60.6761 -8.79222 7.91474 1.43144e-005 4.94449e-006 -75.1414 -41.1199 -44.827 -54.0395 8.17012 -5.36727 5.08616 65.822 -4.499 32.7178 -0.00201306 2.44629e-005 113.628 167.59 -8.69595 -162.716 -17.1369 -15.2066 -22.833 -2.73003e-005 11.0288 -0.0350256 24.5648 1.15264 -0.392434 38.6099 -33.5308 21.7077 -4.30633e-005 34.7711 -0.0247714 -20.0763 -7.63695 -7.18613 
-2.80388 98.4903 -0.10639 -3.13492 14.7132 -34.3663 -1.87113 13.6262 9.1681 -59.991 -10.29 8.24796 1.43144e-005 4.94438e-006 -75.1417 -41.5717 -44.549 -54.4129 8.02798 -6.63899 5.20417 66.6078 -3.24279 32.4877 -0.00204945 2.4357e-005 113.52 167.527 -8.17716 -163.025 -17.1731 -16.7096 -28.524 -3.19304e-005 21.4316 0.0377406 16.6605 -7.14489 1.63887 39.4428 -34.2847 22.6812 7.42863e-005 34.3576 -0.0268234 -19.801 -7.02539 -7.02388 
-2.15206 98.117 -1.01699 -3.01785 15.013 -33.3509 -3.38287 13.8798 9.5365 -59.3771 -11.3922 8.09853 1.43136e-005 4.9475e-006 -75.1321 -41.7748 -44.6769 -54.2484 7.70637 -7.77123 4.99142 67.272 -2.58213 31.9302 -0.00199043 2.38681e-005 113.02 167.568 -9.58258 -162.479 -18.7045 -17.036 -35.0788 -4.35672e-005 32.9794 -0.00114749 11.7907 -14.3045 -0.603701 39.7544 -35.9775 23.085 -8.82829e-005 34.4245 -0.0578897 -19.8578 -6.35699 -6.94192 
-1.76139 97.541 -2.05646 -2.55656 15.0179 -31.7264 -4.91508 14.1084 10.453 -59.0937 -11.5684 7.24152 1.43273e-005 4.89557e-006 -75.2917 -40.9998 -44.6431 -53.384 7.14518 -9.09676 3.35028 67.7047 -2.92621 30.7064 -0.00181828 2.30743e-005 112.213 167.633 -10.5194 -162.574 -19.8621 -16.9271 -37.5198 -0.0001096 43.5303 -0.0958803 8.24499 -18.1906 -5.2871 39.4895 -38.2382 23.0002 -1.06532e-006 34.7692 -0.0938489 -20.0781 -5.57697 -7.00984 
-1.57728 96.7407 -3.2483 -2.144 14.6368 -29.9031 -5.93366 14.5008 11.5088 -59.1627 -11.2473 6.15512 1.43359e-005 4.86264e-006 -75.3929 -39.1684 -44.2762 -50.9875 6.08884 -10.4848 1.02045 67.7413 -3.64593 29.0885 -0.00151494 2.11994e-005 110.324 167.06 -9.20067 -163.997 -19.5211 -16.3977 -36.2205 -2.12998e-005 51.3647 -0.209303 5.63251 -18.4621 -9.35983 39.0199 -40.5891 22.5346 3.00909e-005 35.6326 -0.133413 -20.5211 -4.83575 -7.32327 
-1.60256 95.6756 -4.64777 -1.85895 14.0169 -28.4014 -6.21945 14.6481 12.6306 -59.5762 -10.7459 5.35821 1.43517e-005 4.80168e-006 -75.58 -37.3998 -43.9437 -48.1293 4.66178 -11.056 -1.32747 67.4511 -4.50656 28.0409 -0.00106257 1.75668e-005 106.727 167.801 -8.88751 -163.957 -18.3865 -13.5907 -35.8328 7.07682e-006 53.7641 -0.215989 8.59245 -17.2796 -9.53046 39.0315 -42.7947 22.5858 0.000330752 37.2024 -0.175201 -21.168 -4.16169 -8.02145 
-1.61801 94.466 -6.12529 -1.2706 12.9914 -27.6597 -6.50972 14.719 13.7119 -60.175 -10.5223 5.06653 1.44081e-005 4.57699e-006 -76.2683 -35.026 -44.0782 -44.7382 3.67857 -11.6311 -2.77661 67.2554 -4.69763 27.8652 -0.000443795 1.24847e-005 101.803 168.924 -8.71841 -163.82 -17.2829 -7.0887 -39.1585 6.57986e-005 48.0662 -0.0239824 16.8033 -23.91 -5.31463 38.9412 -44.5905 23.0107 -0.000654734 39.1323 -0.206465 -21.9309 -3.47459 -8.7439 
-1.257 93.2682 -7.54636 -0.380447 11.7495 -27.9607 -6.64972 14.801 14.4374 -61.0826 -10.8842 5.47173 1.4468e-005 4.3243e-006 -77.0401 -32.3224 -43.7465 -41.4539 2.95975 -12.4869 -3.2622 66.8971 -3.73957 28.5587 0.000703054 -2.13258e-005 96.1717 169.443 -7.28785 -164.214 -16.95 -2.68544 -41.2175 -6.21515e-005 42.3464 0.0881726 21.9819 -30.6869 1.28755 38.8729 -45.8829 23.8579 0.000707605 41.133 -0.218872 -22.3775 -2.94831 -9.19098 
-0.43579 92.3618 -8.89126 0.601478 10.4054 -29.8136 -6.41003 14.803 15.6337 -62.6566 -11.2394 6.53149 1.45047e-005 4.16144e-006 -77.5362 -29.9502 -43.477 -38.4282 1.68383 -12.8263 -2.87783 65.9442 -2.16434 29.9211 0.00168951 -1.52823e-005 89.9629 168.922 -5.19768 -164.374 -19.4303 -5.39612 -37.8612 6.68463e-006 46.9213 0.0904477 23.1819 -33.1481 1.24259 39.4416 -45.8272 25.8294 -0.000413093 42.4481 -0.21609 -22.8229 -2.31073 -9.50594 
0.378068 91.9284 -10.0386 1.13638 8.92199 -32.2461 -5.42641 15.1378 16.5058 -64.7799 -11.568 8.03409 1.44742e-005 4.29742e-006 -77.122 -28.5765 -43.5086 -36.9332 -0.0748608 -12.5112 -1.36515 64.6053 -0.138365 31.9876 -0.00368809 -1.1968e-006 83.0511 169.442 -3.85164 -163.787 -22.2392 -7.49268 -36.9596 -0.00622371 50.6216 0.0955519 24.2469 -32.5822 3.1404 39.9103 -44.4931 27.7292 -0.000590189 42.7845 -0.199743 -22.6349 -1.50494 -9.54024 
0.84458 92.0289 -10.928 1.08916 7.61116 -34.1098 -3.87008 15.5218 16.7594 -66.2879 -10.8314 9.25775 1.43627e-005 4.75893e-006 -75.7111 -27.1457 -43.7149 -36.0082 -1.31716 -11.7033 0.196826 63.1834 1.83489 33.8761 -0.0110873 1.91064e-006 76.5278 169.658 -3.80651 -164.517 -23.202 -7.18927 -36.8774 -0.00424476 50.2614 0.0946331 25.176 -31.642 5.57658 39.6724 -42.4769 28.192 -0.000520065 41.7891 -0.180509 -22.303 -0.452923 -9.2019 
